<?xml version="1.0"?>
<svg version="1.1" xmlns="http://www.w3.org/2000/svg" width="209" height="44" style=""><path fill="#ed1c1c" d="M15.88623046875,38.12939453125q0-0.0966796875,0.064453125-0.684814453125t0.169189453125-1.43408203125t0.233642578125-1.82080078125t0.2255859375-1.844970703125t0.169189453125-1.53076171875t0.072509765625-0.88623046875q-0.12890625-0.064453125-0.314208984375-0.185302734375t-0.185302734375-0.281982421875q0-0.2255859375,0.217529296875-0.362548828125t0.378662109375-0.201416015625q0.064453125-0.82177734375,0.1611328125-2.2880859375t0.298095703125-3.166259765625t0.56396484375-3.4482421875t0.958740234375-3.17431640625t1.43408203125-2.328369140625t2.0625-0.90234375t2.0302734375,0.7734375t1.313232421875,2.01416015625t0.7734375,2.75537109375t0.40283203125,3.01318359375t0.169189453125,2.8037109375t0.064453125,2.0947265625q0.0322265625,0.49951171875,0.24169921875,0.668701171875t0.459228515625,0.233642578125t0.451171875,0.14501953125t0.201416015625,0.40283203125q0,0.37060546875-0.451171875,0.515625t-0.708984375,0.17724609375q0.1611328125,2.01416015625,0.443115234375,3.9638671875t0.749267578125,3.931640625q0.064453125,0.37060546875,0.17724609375,0.749267578125t0.11279296875,0.733154296875q0,0.2578125-0.17724609375,0.427001953125t-0.459228515625,0.265869140625t-0.56396484375,0.12890625t-0.475341796875,0.0322265625q-0.72509765625,0-1.224609375-0.27392578125t-0.66064453125-1.04736328125q-0.43505859375-2.07861328125-0.85400390625-4.36669921875q-0.3544921875-1.98193359375-0.3544921875-3.85107421875q0-0.2900390625,0.01611328125-0.580078125q-1.353515625,0-2.72314453125,0.064453125t-2.62646484375,0.4833984375q-0.0322265625,0.43505859375-0.1611328125,1.6435546875t-0.2900390625,2.59423828125t-0.330322265625,2.650634765625t-0.201416015625,1.796630859375q-0.0322265625,0.2255859375-0.330322265625,0.427001953125t-0.64453125,0.217529296875t-0.6123046875-0.217529296875t-0.265869140625-0.829833984375z M18.8994140625,28.36474609375q1.2568359375-0.2900390625,2.521728515625-0.33837890625t2.553955078125-0.11279296875q-0.064453125-0.40283203125-0.0322265625-0.829833984375t0.0322265625-0.862060546875q0-0.95068359375-0.04833984375-2.20751953125t-0.14501953125-2.5458984375t-0.249755859375-2.537841796875t-0.346435546875-2.2236328125t-0.410888671875-1.554931640625t-0.475341796875-0.580078125q-0.49951171875,0.0322265625-0.942626953125,0.862060546875t-0.8056640625,2.11083984375t-0.66064453125,2.8681640625t-0.49951171875,3.101806640625t-0.330322265625,2.81982421875t-0.1611328125,2.0302734375z M32.123100585938,27.80078125q0-1.1279296875,0.104736328125-2.9326171875t0.249755859375-3.72216796875t0.362548828125-3.633544921875t0.475341796875-2.634521484375q0.0966796875-0.40283203125,0.459228515625-0.4833984375t0.733154296875-0.08056640625q0.49951171875,0,0.862060546875,0.17724609375t0.362548828125,0.7734375q0,2.9326171875-0.362548828125,5.873291015625t-0.394775390625,5.873291015625q0.49951171875-0.75732421875,1.2890625-1.135986328125t1.67578125-0.378662109375q1.224609375,0,2.11083984375,0.49951171875t1.43408203125,1.2890625t0.813720703125,1.828857421875t0.265869140625,2.118896484375q0,0.59619140625-0.120849609375,1.490478515625t-0.362548828125,1.88525390625t-0.6123046875,1.9658203125t-0.878173828125,1.748291015625t-1.168212890625,1.248779296875t-1.4501953125,0.475341796875q-0.1611328125,0-0.427001953125-0.04833984375t-0.53173828125-0.14501953125t-0.443115234375-0.249755859375t-0.17724609375-0.378662109375q0-0.2578125,0.314208984375-0.362548828125t0.507568359375-0.104736328125q0.72509765625-0.322265625,1.2890625-1.345458984375t0.942626953125-2.247802734375t0.572021484375-2.425048828125t0.193359375-1.957763671875q0-0.43505859375-0.12890625-1.16015625t-0.394775390625-1.43408203125t-0.72509765625-1.224609375t-1.087646484375-0.515625q-0.75732421875,0-1.20849609375,0.781494140625t-0.708984375,1.82080078125t-0.346435546875,2.14306640625t-0.088623046875,1.732177734375q0,0.40283203125,0.136962890625,0.797607421875t0.314208984375,0.78955078125t0.314208984375,0.8056640625t0.136962890625,0.813720703125q0,0.193359375-0.169189453125,0.322265625t-0.394775390625,0.20947265625t-0.475341796875,0.104736328125t-0.378662109375,0.024169921875q-0.91845703125,0-1.27294921875-0.43505859375t-0.6123046875-1.224609375q-0.56396484375-1.78857421875-0.781494140625-3.633544921875t-0.217529296875-3.697998046875z M45.862412109375,32.10302734375q0-1.482421875,0.346435546875-2.908447265625t0.588134765625-2.843994140625q0.064453125-0.37060546875,0.507568359375-0.459228515625t0.749267578125-0.088623046875q0.53173828125,0,0.85400390625,0.1611328125q0.12890625,0.064453125,0.24169921875,0.14501953125t0.11279296875,0.20947265625q0,1.3857421875-0.330322265625,2.70703125t-0.330322265625,2.8037109375q0,0.49951171875,0.072509765625,0.942626953125t0.136962890625,0.878173828125l0.0966796875,0.46728515625q0,0.12890625,0.01611328125,0.2255859375t0.04833984375,0.2255859375q0,0.2900390625-0.410888671875,0.394775390625t-0.717041015625,0.104736328125q-0.46728515625,0-0.862060546875-0.185302734375t-0.620361328125-0.636474609375l-0.2255859375-0.46728515625q-0.193359375-0.37060546875-0.193359375-0.829833984375t-0.08056640625-0.845947265625z M46.893662109375,22.40283203125l0-0.30615234375q0-0.75732421875,0.378662109375-1.353515625t1.135986328125-0.59619140625q0.0966796875,0,0.185302734375,0.01611328125t0.185302734375,0.01611328125q0.193359375,0.0322265625,0.507568359375,0.153076171875t0.314208984375,0.378662109375l0,0.0322265625q-0.064453125,0.12890625-0.08056640625,0.265869140625t-0.08056640625,0.233642578125l0.0322265625-0.0322265625q-0.193359375,0.49951171875-0.314208984375,0.8056640625t-0.265869140625,0.491455078125t-0.362548828125,0.265869140625t-0.620361328125,0.08056640625q-0.064453125,0-0.2255859375-0.01611328125t-0.346435546875-0.064453125t-0.314208984375-0.12890625t-0.12890625-0.24169921875z M52.914711914063,32.5703125l0-0.46728515625q0-0.580078125,0.0322265625-1.095703125q0.0322265625-0.72509765625,0.0322265625-1.1923828125q0-0.2578125,0.0322265625-0.588134765625t0.1611328125-0.523681640625q0.1611328125-0.1611328125,0.378662109375-0.330322265625t0.475341796875-0.169189453125q0.82177734375,0,1.2890625,0.185302734375t0.49951171875,0.765380859375l0.064453125,0.49951171875q0.2900390625-0.69287109375,0.7734375-1.716064453125t1.119873046875-1.94970703125t1.43408203125-1.5791015625t1.683837890625-0.652587890625q0.82177734375,0,1.353515625,0.7734375t0.845947265625,1.973876953125t0.443115234375,2.6748046875t0.17724609375,2.892333984375t0.064453125,2.586181640625t0.11279296875,1.764404296875q0.064453125,0.49951171875,0.217529296875,1.055419921875t0.153076171875,1.023193359375q0,0.12890625-0.185302734375,0.249755859375t-0.394775390625,0.201416015625t-0.427001953125,0.12890625t-0.314208984375,0.04833984375q-0.62841796875,0-0.894287109375-0.942626953125t-0.330322265625-2.360595703125t-0.064453125-3.069580078125t-0.11279296875-3.069580078125t-0.459228515625-2.360595703125t-1.103759765625-0.974853515625q-0.69287109375,0-1.43408203125,0.894287109375t-1.27294921875,2.376708984375q-0.515625,1.482421875-0.708984375,3.36767578125q-0.064453125,0.59619140625-0.064453125,1.1923828125q0,1.30517578125,0.27392578125,2.6103515625q0.0322265625,0.2255859375-0.185302734375,0.33837890625t-0.539794921875,0.17724609375t-0.652587890625,0.08056640625t-0.507568359375,0.01611328125q-0.62841796875,0-1.007080078125-0.443115234375t-0.588134765625-1.135986328125t-0.281982421875-1.554931640625t-0.088623046875-1.699951171875z M67.5563671875,33.150390625q0-1.1279296875,0.249755859375-2.65869140625t0.845947265625-2.900390625t1.571044921875-2.328369140625t2.457275390625-0.958740234375q1.3857421875,0,2.07861328125,0.797607421875t0.69287109375,2.151123046875q0,0.88623046875-0.330322265625,1.941650390625t-0.942626953125,1.998046875t-1.4501953125,1.571044921875t-1.869140625,0.62841796875l-0.4189453125-0.0322265625q0,0.43505859375,0.12890625,1.168212890625t0.378662109375,1.458251953125t0.64453125,1.27294921875t0.958740234375,0.5478515625q0.82177734375,0,1.5791015625-0.66064453125t1.43408203125-1.46630859375t1.2568359375-1.46630859375t1.0634765625-0.66064453125q0.2578125,0,0.53173828125,0.08056640625t0.30615234375,0.451171875q0,0.2255859375-0.120849609375,0.37060546875t-0.217529296875,0.322265625q-0.49951171875,0.85400390625-1.087646484375,1.62744140625t-1.329345703125,1.40185546875t-1.619384765625,0.990966796875t-1.941650390625,0.362548828125q-1.3857421875,0-2.30419921875-0.491455078125t-1.482421875-1.3212890625t-0.813720703125-1.91748046875t-0.249755859375-2.280029296875z M70.44064453125,31.92578125l0.451171875,0.40283203125q0.322265625,0.2900390625,0.64453125,0.12890625t0.580078125-0.588134765625t0.475341796875-1.055419921875t0.38671875-1.2890625t0.249755859375-1.2890625t0.08056640625-1.04736328125l0-0.5478515625t-0.04833984375-0.580078125t-0.169189453125-0.459228515625t-0.378662109375-0.233642578125q-0.08056640625-0.01611328125-0.14501953125-0.01611328125q-0.5478515625,0-0.9345703125,0.69287109375q-0.4189453125,0.7734375-0.6767578125,1.877197265625t-0.37060546875,2.263916015625t-0.14501953125,1.740234375z M81.021752929687,28.33251953125q0-0.66064453125,0.38671875-1.135986328125t0.942626953125-0.7734375t1.216552734375-0.443115234375t1.224609375-0.14501953125q0.43505859375,0,1.16015625,0.12890625t1.41796875,0.38671875t1.200439453125,0.6767578125t0.507568359375,0.98291015625q0,0.2578125-0.193359375,0.459228515625t-0.40283203125,0.201416015625q-0.43505859375,0-0.78955078125-0.281982421875t-0.733154296875-0.59619140625t-0.829833984375-0.59619140625t-1.01513671875-0.281982421875t-1.023193359375,0.362548828125t-0.459228515625,0.958740234375q0,0.98291015625,0.69287109375,1.925537109375t1.522705078125,1.98193359375t1.522705078125,2.183349609375t0.69287109375,2.52978515625q0,0.59619140625-0.249755859375,1.007080078125t-0.66064453125,0.668701171875t-0.926513671875,0.394775390625t-0.9990234375,0.136962890625q-0.53173828125,0-1.24072265625-0.249755859375t-1.33740234375-0.66064453125t-1.055419921875-0.958740234375t-0.427001953125-1.14404296875q0-0.2900390625,0.410888671875-0.37060546875t0.604248046875-0.08056640625q0.0966796875,0,0.298095703125,0.064453125t0.394775390625,0.14501953125t0.346435546875,0.17724609375t0.120849609375,0.20947265625q0.1611328125,0.193359375,0.491455078125,0.572021484375t0.66064453125,0.6123046875t0.580078125,0.169189453125t0.249755859375-0.72509765625q0-1.2568359375-0.6767578125-2.312255859375t-1.474365234375-2.0625t-1.474365234375-1.998046875t-0.6767578125-2.118896484375z M92.376298828125,34.24609375l0-1.5146484375q0-0.82177734375,0.040283203125-2.328369140625t0.104736328125-3.30322265625t0.17724609375-3.746337890625t0.2578125-3.681884765625t0.346435546875-3.101806640625t0.459228515625-2.0302734375q0.1611328125-0.37060546875,0.53173828125-0.46728515625t0.72509765625-0.0966796875q0.56396484375,0,0.990966796875,0.249755859375t0.427001953125,0.910400390625l-0.2900390625,0.322265625q-0.56396484375,3.72216796875-0.72509765625,7.4765625t-0.2255859375,7.5087890625q0.40283203125-0.62841796875,0.910400390625-1.232666015625t1.1279296875-1.071533203125t1.33740234375-0.749267578125t1.571044921875-0.281982421875q1.095703125,0,1.812744140625,0.66064453125t1.184326171875,1.716064453125t0.69287109375,2.360595703125t0.346435546875,2.6103515625t0.169189453125,2.473388671875t0.14501953125,1.941650390625q-0.30615234375,0.4189453125-0.90234375,0.4189453125l-0.04833984375,0q-0.2578125,0-0.56396484375-0.064453125t-0.40283203125-0.322265625l0.0322265625,0.0322265625q-0.2255859375-0.49951171875-0.30615234375-1.442138671875t-0.12890625-2.07861328125t-0.169189453125-2.328369140625t-0.362548828125-2.1591796875t-0.708984375-1.59521484375t-1.2568359375-0.66064453125l-0.0966796875,0q-0.95068359375,0-1.59521484375,0.580078125q-0.6767578125,0.6123046875-1.095703125,1.611328125t-0.64453125,2.2236328125t-0.346435546875,2.360595703125t-0.185302734375,2.0625t-0.1611328125,1.361572265625q-0.0966796875,0.37060546875-0.572021484375,0.491455078125t-0.813720703125,0.120849609375q-0.78955078125,0-1.2890625-0.451171875q-0.37060546875-0.88623046875-0.43505859375-2.20751953125t-0.064453125-2.578125z M114.07025390625,16.4248046875q0-0.75732421875,0.185302734375-1.103759765625t0.53173828125-0.4833984375t0.837890625-0.104736328125t1.152099609375,0.0322265625q1.67578125,0,3.3837890625,0.515625t3.07763671875,1.506591796875t2.20751953125,2.441162109375t0.837890625,3.33544921875q0,1.2568359375-0.362548828125,2.376708984375t-1.023193359375,2.0947265625t-1.546875,1.780517578125t-1.94970703125,1.40185546875q0.43505859375,0.43505859375,1.1279296875,1.538818359375t1.36962890625,2.3525390625t1.200439453125,2.425048828125t0.620361328125,1.7724609375l-0.193359375,0.2900390625q-0.43505859375,0.2578125-1.04736328125,0.27392578125q-0.2900390625,0-0.75732421875-0.072509765625t-0.59619140625-0.427001953125q-0.66064453125-1.85302734375-1.442138671875-3.81884765625t-1.925537109375-3.544921875l0-0.0322265625q-0.40283203125,0.1611328125-0.797607421875,0.314208984375t-0.797607421875,0.281982421875q0.12890625,1.78857421875,0.265869140625,3.520751953125t0.136962890625,3.504638671875q0,0.2255859375-0.217529296875,0.362548828125t-0.491455078125,0.217529296875t-0.555908203125,0.11279296875t-0.459228515625,0.0322265625q-0.1611328125,0-0.459228515625-0.0322265625t-0.572021484375-0.11279296875t-0.475341796875-0.233642578125t-0.201416015625-0.410888671875q0-1.78857421875-0.08056640625-3.569091796875t-0.17724609375-3.552978515625q-0.49951171875-0.322265625-0.49951171875-0.837890625q0-0.40283203125,0.38671875-0.5478515625q-0.193359375-3.39990234375-0.443115234375-6.78369140625t-0.249755859375-6.81591796875z M116.9867578125,15.92529296875q0.2255859375,3.49658203125,0.507568359375,6.91259765625t0.539794921875,6.91259765625q1.1279296875-0.322265625,2.102783203125-1.119873046875t1.683837890625-1.796630859375t1.103759765625-2.17529296875t0.394775390625-2.33642578125q0-1.2890625-0.515625-2.473388671875t-1.36962890625-2.070556640625q-0.8701171875-0.88623046875-1.998046875-1.3857421875q-0.9990234375-0.43505859375-2.0947265625-0.43505859375l-0.2900390625,0z M129.58202636719,32.48974609375q0-1.095703125,0.298095703125-2.11083984375t0.894287109375-1.812744140625t1.490478515625-1.27294921875t2.070556640625-0.475341796875q0.72509765625,0,1.603271484375,0.217529296875t1.651611328125,0.64453125t1.2890625,1.087646484375t0.515625,1.5146484375q0,0.40283203125-0.136962890625,0.6123046875t-0.555908203125,0.20947265625l-0.17724609375-0.0322265625q0.46728515625,1.2568359375,0.8056640625,2.578125t0.66064453125,2.642578125q0.12890625,0.2578125,0.193359375,0.459228515625t0.064453125,0.394775390625q0,0.2578125-0.14501953125,0.427001953125t-0.378662109375,0.249755859375t-0.4833984375,0.11279296875t-0.443115234375,0.0322265625q-0.69287109375,0-1.039306640625-0.24169921875t-0.49951171875-0.66064453125t-0.185302734375-0.942626953125t-0.12890625-1.055419921875q-0.193359375,0.62841796875-0.507568359375,1.224609375t-0.7412109375,1.071533203125t-1.007080078125,0.75732421875t-1.30517578125,0.281982421875q-1.0634765625,0-1.78857421875-0.6123046875t-1.168212890625-1.506591796875t-0.64453125-1.909423828125t-0.201416015625-1.88525390625z M131.87011230469,32.26416015625q0,0.59619140625,0.08056640625,1.2568359375t0.265869140625,1.30517578125t0.475341796875,1.216552734375t0.72509765625,1.007080078125q0.78955078125-0.85400390625,1.168212890625-2.07861328125t0.6767578125-2.360595703125t0.6767578125-1.94970703125t1.168212890625-0.813720703125q0.49951171875,0,0.837890625,0.17724609375q-0.1611328125-0.40283203125-0.53173828125-0.781494140625t-0.829833984375-0.69287109375t-0.95068359375-0.515625t-0.926513671875-0.201416015625q-0.12890625,0-0.298095703125,0.040283203125t-0.265869140625,0.008056640625q-0.66064453125,0.193359375-1.087646484375,0.668701171875t-0.69287109375,1.119873046875t-0.378662109375,1.3212890625t-0.11279296875,1.27294921875z M143.54692382812,31.92578125q0-0.88623046875,0.169189453125-1.893310546875t0.580078125-1.844970703125t1.135986328125-1.3857421875t1.85302734375-0.5478515625q0.75732421875,0,1.46630859375,0.249755859375t1.33740234375,0.684814453125q0.193359375-0.322265625,0.6123046875-0.394775390625t0.7412109375-0.072509765625q0.12890625,0,0.362548828125,0.01611328125t0.459228515625,0.0966796875t0.394775390625,0.193359375t0.201416015625,0.322265625q0.12890625,1.1279296875,0.17724609375,2.247802734375t0.14501953125,2.231689453125q0.1611328125,2.07861328125,0.49951171875,4.10888671875t0.33837890625,4.10888671875q0,0.98291015625-0.088623046875,2.126953125t-0.46728515625,2.118896484375t-1.103759765625,1.619384765625t-2.01416015625,0.64453125q-1.16015625,0-1.780517578125-0.410888671875t-1.119873046875-1.377685546875q0.0322265625-0.322265625,0.410888671875-0.427001953125t0.652587890625-0.104736328125q0.2578125,0,0.523681640625,0.04833984375t0.427001953125,0.1611328125l0.40283203125,0.2578125q0.59619140625-1.224609375,0.72509765625-2.6748046875t0.12890625-2.8037109375q0-1.1279296875-0.11279296875-2.231689453125t-0.2255859375-2.215576171875q-1.1279296875,2.04638671875-3.43212890625,2.04638671875q-1.0634765625,0-1.732177734375-0.451171875t-1.03125-1.14404296875t-0.49951171875-1.56298828125t-0.136962890625-1.740234375z M145.52885742187,32.07080078125q0,0.40283203125,0.0322265625,1.039306640625t0.169189453125,1.248779296875t0.394775390625,1.055419921875t0.72509765625,0.443115234375q0.88623046875,0,1.40185546875-0.69287109375t0.813720703125-1.651611328125t0.475341796875-1.98193359375t0.451171875-1.683837890625q-0.0322265625-0.2255859375-0.0322265625-0.443115234375l0-0.443115234375q-0.37060546875-0.69287109375-1.07958984375-1.200439453125t-1.46630859375-0.684814453125q-0.0966796875-0.01611328125-0.17724609375-0.01611328125q-0.451171875,0-0.7412109375,0.53173828125q-0.37060546875,0.64453125-0.580078125,1.538818359375t-0.298095703125,1.764404296875t-0.088623046875,1.17626953125z M157.31846191406,32.48974609375q0-1.095703125,0.298095703125-2.11083984375t0.894287109375-1.812744140625t1.490478515625-1.27294921875t2.070556640625-0.475341796875q0.72509765625,0,1.603271484375,0.217529296875t1.651611328125,0.64453125t1.2890625,1.087646484375t0.515625,1.5146484375q0,0.40283203125-0.136962890625,0.6123046875t-0.555908203125,0.20947265625l-0.17724609375-0.0322265625q0.46728515625,1.2568359375,0.8056640625,2.578125t0.66064453125,2.642578125q0.12890625,0.2578125,0.193359375,0.459228515625t0.064453125,0.394775390625q0,0.2578125-0.14501953125,0.427001953125t-0.378662109375,0.249755859375t-0.4833984375,0.11279296875t-0.443115234375,0.0322265625q-0.69287109375,0-1.039306640625-0.24169921875t-0.49951171875-0.66064453125t-0.185302734375-0.942626953125t-0.12890625-1.055419921875q-0.193359375,0.62841796875-0.507568359375,1.224609375t-0.7412109375,1.071533203125t-1.007080078125,0.75732421875t-1.30517578125,0.281982421875q-1.0634765625,0-1.78857421875-0.6123046875t-1.168212890625-1.506591796875t-0.64453125-1.909423828125t-0.201416015625-1.88525390625z M159.60654785156,32.26416015625q0,0.59619140625,0.08056640625,1.2568359375t0.265869140625,1.30517578125t0.475341796875,1.216552734375t0.72509765625,1.007080078125q0.78955078125-0.85400390625,1.168212890625-2.07861328125t0.6767578125-2.360595703125t0.6767578125-1.94970703125t1.168212890625-0.813720703125q0.49951171875,0,0.837890625,0.17724609375q-0.1611328125-0.40283203125-0.53173828125-0.781494140625t-0.829833984375-0.69287109375t-0.95068359375-0.515625t-0.926513671875-0.201416015625q-0.12890625,0-0.298095703125,0.040283203125t-0.265869140625,0.008056640625q-0.66064453125,0.193359375-1.087646484375,0.668701171875t-0.69287109375,1.119873046875t-0.378662109375,1.3212890625t-0.11279296875,1.27294921875z M170.62271484375,26.49560546875q0-0.12890625,0.153076171875-0.233642578125t0.346435546875-0.153076171875t0.394775390625-0.064453125t0.298095703125-0.01611328125q0.72509765625,0,1.24072265625,0.64453125t0.894287109375,1.651611328125t0.64453125,2.2236328125t0.507568359375,2.425048828125t0.475341796875,2.215576171875t0.523681640625,1.554931640625q0.49951171875-0.98291015625,0.910400390625-2.36865234375t0.75732421875-2.8681640625t0.6123046875-2.924560546875t0.427001953125-2.521728515625q0.064453125-0.2900390625,0.40283203125-0.362548828125t0.56396484375-0.072509765625q0.37060546875,0,0.64453125,0.104736328125t0.27392578125,0.459228515625q0,0.59619140625-0.14501953125,1.619384765625t-0.394775390625,2.296142578125t-0.580078125,2.6103515625t-0.708984375,2.537841796875t-0.78955078125,2.126953125t-0.813720703125,1.313232421875q-0.193359375,0.2255859375-0.604248046875,0.314208984375t-0.684814453125,0.088623046875q-0.95068359375,0-1.5791015625-0.49951171875l0,0.0322265625q-0.98291015625-0.91845703125-1.4501953125-2.23974609375t-0.6767578125-2.75537109375t-0.378662109375-2.85205078125t-0.572021484375-2.578125q-0.064453125-0.12890625-0.1611328125-0.378662109375t-0.2255859375-0.49951171875t-0.217529296875-0.475341796875t-0.088623046875-0.3544921875z M183.33077636719,32.48974609375q0-1.095703125,0.298095703125-2.11083984375t0.894287109375-1.812744140625t1.490478515625-1.27294921875t2.070556640625-0.475341796875q0.72509765625,0,1.603271484375,0.217529296875t1.651611328125,0.64453125t1.2890625,1.087646484375t0.515625,1.5146484375q0,0.40283203125-0.136962890625,0.6123046875t-0.555908203125,0.20947265625l-0.17724609375-0.0322265625q0.46728515625,1.2568359375,0.8056640625,2.578125t0.66064453125,2.642578125q0.12890625,0.2578125,0.193359375,0.459228515625t0.064453125,0.394775390625q0,0.2578125-0.14501953125,0.427001953125t-0.378662109375,0.249755859375t-0.4833984375,0.11279296875t-0.443115234375,0.0322265625q-0.69287109375,0-1.039306640625-0.24169921875t-0.49951171875-0.66064453125t-0.185302734375-0.942626953125t-0.12890625-1.055419921875q-0.193359375,0.62841796875-0.507568359375,1.224609375t-0.7412109375,1.071533203125t-1.007080078125,0.75732421875t-1.30517578125,0.281982421875q-1.0634765625,0-1.78857421875-0.6123046875t-1.168212890625-1.506591796875t-0.64453125-1.909423828125t-0.201416015625-1.88525390625z M185.61886230469,32.26416015625q0,0.59619140625,0.08056640625,1.2568359375t0.265869140625,1.30517578125t0.475341796875,1.216552734375t0.72509765625,1.007080078125q0.78955078125-0.85400390625,1.168212890625-2.07861328125t0.6767578125-2.360595703125t0.6767578125-1.94970703125t1.168212890625-0.813720703125q0.49951171875,0,0.837890625,0.17724609375q-0.1611328125-0.40283203125-0.53173828125-0.781494140625t-0.829833984375-0.69287109375t-0.95068359375-0.515625t-0.926513671875-0.201416015625q-0.12890625,0-0.298095703125,0.040283203125t-0.265869140625,0.008056640625q-0.66064453125,0.193359375-1.087646484375,0.668701171875t-0.69287109375,1.119873046875t-0.378662109375,1.3212890625t-0.11279296875,1.27294921875z M197.31178710937,32.5703125l0-0.46728515625q0-0.580078125,0.0322265625-1.095703125q0.0322265625-0.72509765625,0.0322265625-1.1923828125q0-0.2578125,0.0322265625-0.588134765625t0.1611328125-0.523681640625q0.1611328125-0.1611328125,0.378662109375-0.330322265625t0.475341796875-0.169189453125q0.82177734375,0,1.2890625,0.185302734375t0.49951171875,0.765380859375l0.064453125,0.49951171875q0.2900390625-0.69287109375,0.7734375-1.716064453125t1.119873046875-1.94970703125t1.43408203125-1.5791015625t1.683837890625-0.652587890625q0.82177734375,0,1.353515625,0.7734375t0.845947265625,1.973876953125t0.443115234375,2.6748046875t0.17724609375,2.892333984375t0.064453125,2.586181640625t0.11279296875,1.764404296875q0.064453125,0.49951171875,0.217529296875,1.055419921875t0.153076171875,1.023193359375q0,0.12890625-0.185302734375,0.249755859375t-0.394775390625,0.201416015625t-0.427001953125,0.12890625t-0.314208984375,0.04833984375q-0.62841796875,0-0.894287109375-0.942626953125t-0.330322265625-2.360595703125t-0.064453125-3.069580078125t-0.11279296875-3.069580078125t-0.459228515625-2.360595703125t-1.103759765625-0.974853515625q-0.69287109375,0-1.43408203125,0.894287109375t-1.27294921875,2.376708984375q-0.515625,1.482421875-0.708984375,3.36767578125q-0.064453125,0.59619140625-0.064453125,1.1923828125q0,1.30517578125,0.27392578125,2.6103515625q0.0322265625,0.2255859375-0.185302734375,0.33837890625t-0.539794921875,0.17724609375t-0.652587890625,0.08056640625t-0.507568359375,0.01611328125q-0.62841796875,0-1.007080078125-0.443115234375t-0.588134765625-1.135986328125t-0.281982421875-1.554931640625t-0.088623046875-1.699951171875z"/><path fill="#" d=""/></svg>
